PathFileType	4	(X/Y/Z)	/Users/itak/Documents/Research/Walk-IL/dataset/trc/00224_00009.trc
DataRate	CameraRate	NumFrames	NumMarkers	Units	OrigDataRate	OrigDataStartFrame	OrigNumFrames
100.000000	100.000000	4	53	mm	100.000000	397	530
Frame#	Time	RPSI			LPSI			L3			STRN			T10			C7			CLAV			RBAK			LBAK			LSHO			LUPA			LAEL			LAOL			LWTS			LWPS			LFRA			LIFD			LHPS			LHTS			RSHO			RUPA			RAEL			RAOL			RWTS			RWPS			RFRA			RIFD			RHTS			RHPS			RBHD			LFHD			RFHD			LBHD			LHIP			RHIP			RASI			LASI			LKNE			LTHI			LANK			LTIP			LTOE			LMT1			LMT5			LHEE			RKNE			RANK			RTIP			RTOE			RMT1			RMT5			RHEE			RTHI			
		X1	Y1	Z1	X2	Y2	Z2	X3	Y3	Z3	X4	Y4	Z4	X5	Y5	Z5	X6	Y6	Z6	X7	Y7	Z7	X8	Y8	Z8	X9	Y9	Z9	X10	Y10	Z10	X11	Y11	Z11	X12	Y12	Z12	X13	Y13	Z13	X14	Y14	Z14	X15	Y15	Z15	X16	Y16	Z16	X17	Y17	Z17	X18	Y18	Z18	X19	Y19	Z19	X20	Y20	Z20	X21	Y21	Z21	X22	Y22	Z22	X23	Y23	Z23	X24	Y24	Z24	X25	Y25	Z25	X26	Y26	Z26	X27	Y27	Z27	X28	Y28	Z28	X29	Y29	Z29	X30	Y30	Z30	X31	Y31	Z31	X32	Y32	Z32	X33	Y33	Z33	X34	Y34	Z34	X35	Y35	Z35	X36	Y36	Z36	X37	Y37	Z37	X38	Y38	Z38	X39	Y39	Z39	X40	Y40	Z40	X41	Y41	Z41	X42	Y42	Z42	X43	Y43	Z43	X44	Y44	Z44	X45	Y45	Z45	X46	Y46	Z46	X47	Y47	Z47	X48	Y48	Z48	X49	Y49	Z49	X50	Y50	Z50	X51	Y51	Z51	X52	Y52	Z52	X53	Y53	Z53	

398	3.97	619.4150390625	1021.389465332031	-52.55756759643555	607.9164428710938	1026.103881835938	67.03958892822266	608.762939453125	1111.93017578125	15.80921268463135	343.9898681640625	1267.989868164062	9.287043571472168	603.560546875	1237.075561523438	0.5854480266571045	512.3914794921875	1491.00048828125	-0.06084296107292175	358.5405578613281	1387.571166992188	7.899346828460693	602.0536499023438	1360.6435546875	-75.86821746826172	540.3329467773438	1454.031372070312	110.6599884033203	454.2058410644531	1445.856079101562	171.6766967773438	498.78173828125	1330.097778320312	247.9893188476562	506.5960693359375	1120.819580078125	281.0768432617188	568.5631103515625	1105.977661132812	222.1795349121094	415.4005126953125	882.9063110351562	250.4174346923828	458.3163452148438	869.3078002929688	321.9656982421875	492.2377319335938	1013.533203125	301.764404296875	416.7483825683594	688.5183715820312	266.2245178222656	442.93359375	780.9451293945312	324.5041198730469	388.2568969726562	782.2960205078125	282.8310852050781	451.721435546875	1438.30224609375	-165.2008361816406	473.7071228027344	1374.933837890625	-233.735595703125	499.3527526855469	1093.82080078125	-271.1937255859375	535.0487670898438	1084.664184570312	-183.0231781005859	347.75048828125	890.9439697265625	-234.9932098388672	404.0437316894531	870.537353515625	-295.7558288574219	471.1864318847656	1026.276245117188	-284.3782348632812	315.9245910644531	700.8823852539062	-227.9367065429688	297.3224487304688	775.0670776367188	-252.4360504150391	354.0406494140625	767.6632080078125	-298.1648254394531	449.2944946289062	1644.222534179688	-46.10795974731445	247.3187255859375	1657.199340820312	57.49231338500977	243.4996337890625	1657.267578125	-43.16118240356445	408.8606872558594	1643.9072265625	88.96463775634766	494.0827331542969	964.4398803710938	196.5419921875	539.105224609375	973.9581298828125	-170.2000427246094	434.8730163574219	1011.053100585938	-145.0456085205078	399.0904235839844	1000.608642578125	133.9484405517578	299.3951110839844	517.2609252929688	145.1374664306641	361.5245361328125	644.022216796875	183.4404602050781	207.2930450439453	39.50590515136719	140.9305419921875	263.0094604492188	290.3318786621094	154.6872253417969	16.63709259033203	110.8269653320312	58.48416137695312	86.89005279541016	86.27075958251953	25.25192260742188	82.98099517822266	72.87416839599609	137.2625732421875	275.6959533691406	26.66155052185059	99.6990966796875	525.623046875	479.8414916992188	-114.8819351196289	731.16357421875	33.51993179321289	-46.24335098266602	546.8038330078125	358.8625183105469	-90.79420471191406	519.2861938476562	41.61915969848633	-28.32773971557617	567.8291625976562	41.05987548828125	19.77786445617676	624.5913696289062	28.31893730163574	-87.12181854248047	787.41748046875	46.66395950317383	19.0583553314209	493.1901245117188	747.6873779296875	-162.0837554931641	
399	3.98	626.1588745117188	1022.752990722656	-53.52840042114258	614.94921875	1027.444091796875	66.06344604492188	615.4750366210938	1113.071899414062	14.92481327056885	350.848876953125	1269.30517578125	8.712696075439453	610.3600463867188	1238.318969726562	-0.05305580794811249	519.2607421875	1492.279663085938	-0.5540397763252258	365.378662109375	1388.880615234375	7.265491962432861	609.0932006835938	1361.907470703125	-76.17563629150391	547.125732421875	1455.344482421875	110.2272033691406	460.9274291992188	1447.067993164062	171.1853332519531	505.5599060058594	1331.180908203125	247.3346252441406	513.3848266601562	1121.682250976562	279.9216613769531	575.4503784179688	1107.017456054688	221.0707397460938	421.0295715332031	884.5140380859375	247.7889556884766	463.9548034667969	870.02197265625	319.3064270019531	498.6597900390625	1014.282653808594	300.0588989257812	419.8232727050781	690.0170288085938	262.0680541992188	447.6177062988281	781.7462158203125	321.1378173828125	392.8756408691406	784.0778198242188	279.6065673828125	458.8465576171875	1439.550659179688	-165.8475494384766	481.0818481445312	1376.088500976562	-234.2591705322266	506.9653625488281	1094.910400390625	-271.13720703125	542.5391235351562	1085.98486328125	-182.8533782958984	356.7427368164062	890.9132690429688	-235.0801849365234	413.2026672363281	871.0498046875	-295.8650817871094	479.2086791992188	1027.2568359375	-284.3173828125	326.4185791015625	700.59375	-228.2059020996094	307.2083435058594	774.6586303710938	-252.6206359863281	364.0257568359375	767.7665405273438	-298.3651123046875	456.1191711425781	1645.519409179688	-46.81535720825195	253.9854736328125	1658.433959960938	56.43363189697266	250.3193206787109	1658.403686523438	-44.15102005004883	415.5105895996094	1645.314575195312	88.18603515625	502.2964782714844	965.6421508789062	196.0565490722656	545.5867919921875	975.19091796875	-170.9088592529297	441.4314270019531	1012.246215820312	-145.4952087402344	406.3603820800781	1001.7021484375	133.5228424072266	306.9545288085938	518.033447265625	144.9363098144531	369.221923828125	644.998291015625	183.7064361572266	221.5851593017578	39.20873641967773	141.1545715332031	273.8419189453125	290.6098327636719	154.4191436767578	28.30580520629883	107.3226547241211	62.24306488037109	98.29550933837891	84.03013610839844	27.60830307006836	96.86210632324219	70.5552978515625	139.7432403564453	289.1222534179688	26.99851989746094	98.54073333740234	531.0211181640625	481.0722961425781	-115.1167221069336	731.4401245117188	32.73394775390625	-46.30494689941406	550.8674926757812	359.8723449707031	-90.85778045654297	519.4115600585938	41.58618545532227	-28.17591285705566	568.0111083984375	40.89714813232422	19.81748199462891	624.6769409179688	28.28336143493652	-87.18484497070312	787.6983642578125	45.08996200561523	19.18610000610352	499.5196228027344	748.047607421875	-163.0553436279297	
400	3.99	632.675537109375	1024.210327148438	-54.42633819580078	621.754638671875	1028.902587890625	65.152587890625	622.0313720703125	1114.389404296875	14.07220363616943	357.5557250976562	1270.8076171875	8.212885856628418	616.9852294921875	1239.721801757812	-0.6668881177902222	525.9951782226562	1493.716918945312	-0.9983240962028503	372.0393371582031	1390.376708984375	6.674074649810791	615.9549560546875	1363.335815429688	-76.46498870849609	553.7731323242188	1456.841430664062	109.8573532104492	467.4790954589844	1448.4833984375	170.7369232177734	512.1241455078125	1332.483642578125	246.7595062255859	519.967041015625	1122.770385742188	278.7731323242188	582.184814453125	1108.310791015625	220.0232543945312	426.6490173339844	886.2804565429688	245.1546783447266	469.5166625976562	870.958251953125	316.6741943359375	504.9182434082031	1015.266235351562	298.3694763183594	423.1182861328125	691.6796875	257.8972473144531	452.3509216308594	782.75732421875	317.7990417480469	397.5727844238281	785.988525390625	276.3471984863281	465.8006896972656	1440.998779296875	-166.4335784912109	488.2662048339844	1377.442260742188	-234.7291870117188	514.596923828125	1096.220703125	-270.9292907714844	549.9221801757812	1087.555419921875	-182.4886322021484	365.8528137207031	891.0018920898438	-235.2163391113281	422.5646667480469	871.7439575195312	-295.9468688964844	487.2950439453125	1028.444213867188	-284.1493530273438	337.1834106445312	700.396728515625	-228.6131591796875	317.3526611328125	774.309814453125	-252.9563293457031	374.3189392089844	768.0169677734375	-298.6382751464844	462.9253540039062	1646.95751953125	-47.41398620605469	260.61865234375	1659.933959960938	55.43415832519531	257.130615234375	1659.821044921875	-45.0747184753418	422.1213073730469	1646.86669921875	87.49697875976562	509.9788818359375	967.0548706054688	195.559814453125	551.8233642578125	976.5029907226562	-171.5234680175781	447.7593688964844	1013.62548828125	-145.8441009521484	413.3780822753906	1003.052673339844	133.1955871582031	314.3186340332031	519.03564453125	144.6658935546875	376.6319885253906	646.2453002929688	183.7425231933594	236.7665252685547	38.86355209350586	141.4474639892578	284.927734375	290.9893493652344	154.1443328857422	41.0750846862793	103.3815765380859	65.62251281738281	110.8706283569336	81.43108367919922	29.77275657653809	111.6753845214844	68.01905822753906	142.0058288574219	303.6700744628906	27.67766761779785	97.68099975585938	536.3676147460938	482.4367065429688	-115.2502365112305	731.6760864257812	32.11506271362305	-46.34361267089844	554.90478515625	361.0451965332031	-90.85531616210938	519.5012817382812	41.5717658996582	-28.06987762451172	568.1553955078125	40.80431747436523	19.83858299255371	624.755126953125	28.2642879486084	-87.21897888183594	787.9144897460938	43.73503875732422	19.35036277770996	505.5959167480469	748.5947265625	-164.1390228271484	
401	4	638.98095703125	1025.733154296875	-55.23513793945312	628.33447265625	1030.458251953125	64.32388305664062	628.4484252929688	1115.863403320312	13.27083587646484	364.0960388183594	1272.466674804688	7.776459693908691	623.439697265625	1241.252563476562	-1.255468845367432	532.5990600585938	1495.281005859375	-1.403819918632507	378.5143127441406	1392.0322265625	6.121361255645752	622.6343994140625	1364.899658203125	-76.76061248779297	560.2875366210938	1458.484497070312	109.5350799560547	473.8845520019531	1450.07421875	170.3258056640625	518.4971313476562	1333.978637695312	246.2605590820312	526.3580322265625	1124.058715820312	277.6385498046875	588.7645874023438	1109.821166992188	219.0369873046875	432.2362670898438	888.1780395507812	242.5369110107422	474.9704284667969	872.1071166992188	314.0909118652344	511.0064697265625	1016.462524414062	296.7078857421875	426.8384704589844	693.482421875	253.7878570556641	457.1282043457031	783.9636840820312	314.5178833007812	402.3683471679688	787.97412109375	273.0677795410156	472.5696716308594	1442.61083984375	-166.9562377929688	495.2178039550781	1378.960815429688	-235.1439514160156	522.2359008789062	1097.728271484375	-270.6036071777344	557.2070922851562	1089.351196289062	-181.9727630615234	375.0616760253906	891.2066040039062	-235.3952789306641	432.097900390625	872.6019897460938	-296.0029296875	495.4325561523438	1029.814575195312	-283.898193359375	348.1957397460938	700.2892456054688	-229.1284484863281	327.7264099121094	774.0267333984375	-253.4169921875	384.8892822265625	768.4020385742188	-298.9629211425781	469.7077026367188	1648.513305664062	-47.91329956054688	267.2180786132812	1661.654052734375	54.50345611572266	263.9216613769531	1661.471069335938	-45.92708969116211	428.6983947753906	1648.536010742188	86.88777160644531	516.9273071289062	968.662353515625	194.9991760253906	557.84912109375	977.8650512695312	-172.03955078125	453.8836669921875	1015.154235839844	-146.1040496826172	420.1212158203125	1004.636535644531	132.95703125	321.518310546875	520.2277221679688	144.3564605712891	383.7651672363281	647.7180786132812	183.5753021240234	252.7342529296875	38.49739074707031	141.7285766601562	296.2286376953125	291.4727783203125	153.8922729492188	54.86515426635742	99.16890716552734	68.57011413574219	124.5331344604492	78.59736633300781	31.7056999206543	127.2900619506836	65.37204742431641	144.0188446044922	319.2772216796875	28.82341957092285	97.03828430175781	541.6744384765625	483.8963623046875	-115.2933197021484	731.8883056640625	31.60483360290527	-46.37514114379883	558.9365234375	362.3471374511719	-90.79750061035156	519.5764770507812	41.59872436523438	-28.02006340026855	568.2899780273438	40.79733276367188	19.83850479125977	624.8368530273438	28.24799156188965	-87.2381591796875	788.0870361328125	42.54277038574219	19.52017974853516	511.4368286132812	749.3639526367188	-165.2603149414062	
